<?xml version="1.0" encoding="utf-8"?>
<!-- Generator: Adobe Illustrator 28.0.0, SVG Export Plug-In . SVG Version: 6.00 Build 0)  -->
<svg version="1.1" id="圖層_1" xmlns="http://www.w3.org/2000/svg" xmlns:xlink="http://www.w3.org/1999/xlink" x="0px" y="0px"
	 viewBox="0 0 490.988 460.571" style="enable-background:new 0 0 490.988 460.571;" xml:space="preserve">
<style type="text/css">
	.st0{fill:#9BBEB2;}
	.st1{fill:#D9D6D6;}
	.st2{fill:#644B3B;}
	.st3{fill:#E9AF59;}
	.st4{fill:#E9AF5A;}
	.st5{fill:#654C3C;}
	.st6{fill:#ABCAC0;}
	.st7{fill:#B5CDC4;}
	.st8{fill:#ABC9BF;}
	.st9{fill:#A8C8BE;}
	.st10{fill:#AECCC3;}
	.st11{fill:#ADCCC2;}
	.st12{fill:#A6C6BC;}
	.st13{fill:#A9C9BE;}
	.st14{fill:#AECDC4;}
	.st15{fill:#D6E8E4;}
	.st16{fill:#9F958C;}
	.st17{fill:#CBE0DB;}
	.st18{fill:#8E8378;}
	.st19{fill:#A8C7BD;}
	.st20{fill:#E0EEEB;}
	.st21{fill:#D6E9E5;}
	.st22{fill:#94AA9E;}
	.st23{fill:#B9D5CD;}
	.st24{fill:#BFD9D2;}
	.st25{fill:#687F77;}
	.st26{fill:#6F877F;}
	.st27{fill:#6C847C;}
	.st28{fill:#708980;}
	.st29{fill:#6B827A;}
	.st30{fill:#6E867E;}
	.st31{fill:#CBD0CD;}
	.st32{fill:#779289;}
	.st33{fill:#758E85;}
	.st34{fill:#79948B;}
	.st35{fill:#7C968D;}
	.st36{fill:#7F9F95;}
	.st37{fill:#728C83;}
	.st38{fill:#7FA097;}
	.st39{fill:#87A69C;}
	.st40{fill:#7C9E94;}
	.st41{fill:#7E9D93;}
	.st42{fill:#BBCBC5;}
	.st43{fill:#859F95;}
	.st44{fill:#C7CECA;}
	.st45{fill:#C6CEC9;}
	.st46{fill:#79988E;}
	.st47{fill:#8CAEA3;}
	.st48{fill:#BBD6CE;}
	.st49{fill:#7B9C92;}
	.st50{fill:#982B3E;}
	.st51{fill:#CB9351;}
</style>
<g>
	<path class="st0" d="M361.657,276.307c-1.529-0.445-2.655,0.879-4.071,0.926c-0.488,0.27-0.907,0.616-1.2,1.099l0.038-0.004
		c-4.377,1.108-8.575,2.513-11.194,6.607c-0.506,0.792-1.225,1.327-2.203,1.346c-4.478,0.089-7.59,2.93-10.895,5.38
		c-2.928,0.884-5.847,1.798-8.506,3.374c-2.287,0.348-4.771,0.392-6.07,2.761c-1.302,2.375-3.109,1.143-4.816,0.899
		c-1.629,1.033-3.412,0.848-5.182,0.723c-0.577-0.129-1.166-0.374-1.702,0.128c-0.684,1.568-0.219,4.002-2.996,3.947l0.008,0
		c-1.914-0.344-3.548,0.747-5.338,1.039l0.025-0.039c-1.338,0.961-3.093-0.095-4.42,0.917c-3.119,2.327-7.056,2.148-10.553,3.345
		c-3.407,1.167-6.902,2.443-10.647,2.395c-2.044-0.026-3.702,1.237-5.501,1.965c-5.059,2.049-10.643,1.756-15.7,3.47
		c-8.864,3.004-18.232,2.834-27.22,4.914c-5.052-1.819-10.124,2.606-15.174-0.048c-2.148,1.324-4.962,0.888-6.953,2.627
		c-6.189,1.322-11.929,4.55-18.477,4.346c-1.327-1.645-2.802-2.172-5.112-1.965c-7.249,0.649-14.516,1.407-21.765,1.743
		c-12.118,0.562-24.322,1.616-36.382-0.983c-0.529-0.114-1.147-0.498-1.566-0.34c-5.695,2.148-11.396-0.507-16.991,0.033
		c-6.243,0.602-12.077-1.176-18.091-1.788c-4.804-0.489-9.423-2.217-14.278-2.762c-6.906-0.775-13.376-3.474-20.124-5.018
		c-6.164-1.411-11.943-4.137-17.651-6.826c-1.612-0.759-3.237-1.346-4.847-2.029c-4.065-1.726-8.099-3.281-11.078-7.198
		c-3.127-4.111-6.789-7.839-9.54-12.274c-0.961-0.891-1.425-2.13-2.202-3.151c-2.065-3.276-3.826-6.625-2.616-10.705
		c0.047-0.16,0.016-0.361-0.031-0.527c-2.314-8.112,2.068-13.773,6.902-19.394c5.547-6.451,11.946-11.937,18.747-16.955
		c3.03-2.236,6.532-3.82,9.67-5.924c6.529-4.379,12.833-9.105,19.478-13.293c3.569-2.249,7.708-3.571,11.494-5.501
		c7.865-4.01,16.36-6.34,24.574-9.416c7.259-1.147,7.204-1.14,8.202,5.816c1.32,9.201,2.78,18.372,9.531,25.549
		c0.741,1.106,1.495,2.204,2.723,2.855c4.673,3.005,9.928,4.659,15.288,5.43c12.897,1.855,25.448,6.175,38.477,6.557
		c17.546,0.515,35.137-0.183,52.59-2.263c5.501-0.656,10.728-3.143,16.116-4.679c9.075-2.587,18.607-3.177,27.451-6.687
		c2.858-1.134,5.973-1.545,9.104-1.063c2.17,0.559,4.521,0.883,6.074-0.963c4.107-4.883,10.151-6.382,15.446-9.143
		c2.665-1.39,4.721-3.211,6.468-5.535c7.334-5.991,14.383-12.38,23.002-16.586c1.338-0.527,2.649-1.099,3.591-2.267
		c9.126-5.917,16.864-13.603,25.576-20.059c5.096-3.776,9.089-8.852,13.421-13.465c2.371-2.525,2.298-6.425,1.999-9.892
		c-0.682-7.923-1.427-15.846-3.51-23.568c-0.278-1.323-0.325-2.625,0.345-3.861c0.608-0.993,2.021-0.524,2.661-1.464
		c0.255-1.522,1.203-2.318,2.674-1.967c5.163,1.233,9.954-1.166,14.958-1.556c5.87-0.458,11.654-1.097,17.596-0.986
		c4.22,0.079,8.694-0.335,12.833-0.218c6.644,0.188,13.374-0.042,20.024,0.786c5.529,0.688,11.212,0.677,16.577,1.993
		c5.618,1.378,11.409,1.665,16.987,3.713c4.01,1.472,8.178,2.409,11.781,4.862c11.678,5.281,11.645,13.874,8.778,27.302
		c0.046,0.315,0.052,0.631,0.016,0.948c-0.349,2.349-1.798,4.33-2.229,6.651l0.009-0.005c-1.064,1.135-4.225,0.84-2.325,3.996
		c1.002,1.664-0.652,2.461-2.142,2.845c-0.398,0.068-0.603-0.304-0.922-0.427c0.039,0.35,0.076,0.701,0.111,1.06
		c-0.675,1.527-1.141,3.149-2.201,4.464c-0.816,0.022-1.573,0.115-1.136,1.288c-0.841,1.966-2.866,3.188-3.328,5.379
		c-1.903,2.388-3.966,4.621-6.355,6.537c-1.73,2.538-5.71,2.745-6.491,6.268c-0.879,1.241-2.58,1.308-3.515,2.467l0.047-0.016
		c-0.203,0.254-0.468,0.389-0.795,0.41c-0.002,0.007-0.379,0.29-0.379,0.29s0.062,0.467,0.052,0.478
		c-0.341,0.412-0.829,0.672-1.057,1.168c-0.016,0.272-0.076,0.535-0.181,0.787c-0.542,2.33-2.826,1.528-4.211,2.343
		c-2.198,3.126-4.104,6.328-8.51,7.166c-2.026,0.385-2.356,3.862-4.765,4.647c-2.822,3.075-5.602,6.203-9.654,7.746l0.016-0.011
		c-1.325,0.65-2.344,1.689-3.409,2.674c-3.182,2.444-7.106,3.896-9.622,7.223c-0.616,3.668-4.389,3.523-6.503,5.382
		c-3.109,0.993-5.992,2.553-8.041,5.025c-2.722,3.284-6.286,4.898-10.096,6.259c-0.379-0.358-0.85-0.61-1.205-1.002
		c0.14,0.491,0.772,0.537,0.925,1.044c-0.887,1.659-2.604,1.971-4.118,2.604c-3.062-0.664-1.469,2.473-2.694,3.308
		c-0.252,0.157-0.527,0.23-0.824,0.221c-0.551,0.211-0.978,0.567-1.271,1.082l0.03-0.002c-0.827,0.476-1.679,0.813-2.621,0.487
		c-0.234-0.087-0.448-0.251-0.611-0.476c-0.057,0.057,0.052,0.206,0.35,0.488c0.29,1-0.201,1.627-0.908,2.163
		c-0.718,0.634-1.309,1.408-2.171,1.873c-0.432,0.242-0.895,0.399-1.374,0.5c-3.064,1.938-6.774,2.825-9.248,5.709
		c-0.31,0.346-0.659,0.656-1.018,0.949C363.188,275.344,362.554,276.019,361.657,276.307z"/>
	<path class="st1" d="M366.057,128.861c-0.342,0.954-1.135,1.18-2.022,1.253c-1.665,1.405-1.154,2.828-0.037,4.257
		c2.425,6.37,3.152,11.168,2.838,17.76c-0.04,0.835,0.523,1.681,0.667,2.545c1.104,6.648,0.411,12.757-5.207,17.419
		c-2.767,2.296-5.099,4.993-7.3,7.848c-1.04,1.348-2.642,2.348-4.149,3.233c-3.727,2.19-7.333,4.455-9.552,8.364
		c-0.335,0.59-0.874,1.22-1.472,1.479c-5.148,2.232-9.198,6.147-13.94,8.994c-0.904,1.035-2.486,1.009-3.334,2.131
		c-1.399,2.719-4.675,2.259-6.706,3.986c-4.216,3.584-8.53,7.055-12.86,10.501c-0.978,0.779-2.188,1.267-3.291,1.89
		c-6.425,2.337-11.96,6.167-17.299,10.306c-0.729-0.297-1.466-0.584-1.353,0.738c-3.663,0.999-6.336,3.787-9.708,5.292
		c-4.418-0.308-8.681,0.661-12.699,2.238c-4.24,1.665-8.652,2.347-13.047,3.129c-5.753,1.023-11.283,2.773-16.855,4.444
		c-6.534,1.959-13.157,3.257-20.021,3.891c-5.171,0.478-10.493,0.931-15.53,0.879c-5.429-0.056-10.868,1.305-16.409,0.08
		c-3.211-0.71-6.741,0.673-10.197,0.54c-6.246-0.24-12.222-2.111-18.39-2.799c-5.746-0.642-11.305-2.317-17.06-3.148
		c-6.857-0.99-14.363-1.91-20.036-7.044c-0.987-0.471,0.149-3.057-2.182-2.19c-6.328-4.881-8.017-12.198-9.551-19.342
		c-0.665-3.097-1.736-6.299-1.361-9.625c0.313-2.776-0.895-4.088-3.773-3.745c-0.894,0.107-1.814-0.002-2.722-0.012
		c0.437-0.625,1.03-0.908,1.791-1.06c4.068-0.814,3.995-0.842,4.441-5.112c0.948-9.074,2.456-18.204,6.145-26.449
		c3.068-6.857,6.51-13.697,10.498-20.158c1.34-2.171,2.223-4.56,3.423-6.763c3.137-5.762,5.946-11.682,10.131-16.907
		c3.964-4.949,7.003-10.637,9.638-16.464c0.124-0.275-0.093-0.704-0.151-1.061c3.421-3.58,6.107-7.902,10.551-10.449
		c7.352-4.822,14.434-9.982,21.281-15.528c2.419-1.96,5.207-3.904,8.872-4.626c4.63-0.911,8.828-3.792,13.243-5.75
		c5.076-2.251,10.082-4.57,15.33-6.455c3.394-1.218,6.674-2.528,10.296-2.761c0.51-0.033,1.053-0.219,1.523-0.101
		c9.087,2.273,18.249,0.567,27.379,0.566c5.614,0,11.266-1.422,16.843,0.6c1.838,0.667,3.86,0.902,5.839,0.359
		c1.072-0.294,2.208-0.563,3.184-0.024c4.543,2.51,7.381,0.528,9.521-3.462c-0.317,6.628,5.025,5.759,8.959,6.791
		c1.705,0.448,3.62,0.338,4.985,1.759c0.202,0.302,0.395,0.862,0.606,0.869c6.21,0.19,9.942,6.476,16.181,6.575
		c0.332,0.005,0.728,0.212,0.98,0.447c4.018,3.752,9.587,5.08,13.653,8.755c5.176,4.679,11.174,8.467,15.36,14.222
		c0.419,0.577,0.991,1.069,1.565,1.503c6.863,5.194,10.979,12.445,14.249,20.085C359.549,127.596,361.927,129.23,366.057,128.861z"
		/>
	<path class="st2" d="M363.145,273.992c0.311,0.018,0.599-0.055,0.865-0.217c4.356-0.891,7.427-4.03,11.001-6.291l-0.066,0.05
		c1.385-0.848,2.194,0.021,2.968,0.996c3.972,4.815,7.932,9.486,10.728,15.301c2.188,4.55,5.74,8.618,8.696,12.89
		c3.034,4.385,5.698,9.045,8.947,13.232c3.607,4.648,7.333,9.263,11.278,13.611c2.28,2.513,4.62,5.025,6.672,7.695
		c4.487,5.838,10.049,10.783,14.007,17.042c0.819,1.622,0.079,3.095-1.183,3.693c-4.926,2.333-8.152,6.927-12.917,9.426
		c-2.117-1.059-2.759-3.45-4.433-4.908c-0.524-0.949-0.213-2.295-1.393-2.933l0.009,0.007c-0.931-1.589-1.864-3.178-3.278-4.408
		c-4.906-8.784-11.277-16.463-18.203-23.677c-1.443-1.504-1.571-3.471-2.975-5.033c-4.596-5.111-8.517-10.799-13.518-15.6
		c-1.921-1.844-2.548-4.708-3.958-7.028c-3.868-6.365-9.07-11.833-12.352-18.574c-0.436-0.284-0.758-0.665-0.967-1.142l-0.044-0.045
		C362.089,276.69,361.893,275.321,363.145,273.992z"/>
	<path class="st2" d="M182.91,328.423c1.406-2.023,2.954-3.737,5.622-1.903c1.546,1.062,2.391,0.125,3.679-0.685
		c2.746-1.727,5.592-4.004,9.177-1.757c0.183,0.309,0.577,0.665,0.521,0.923c-2.102,9.647-1.584,19.725-4.927,29.192
		c-0.731,2.071-0.431,4.539-0.442,6.824c-0.032,6.582-0.869,13.071-2.204,19.496c-0.407,1.96-0.583,3.875-0.61,5.887
		c-0.056,4.291,0.686,8.651-0.84,12.877c-0.351,0.972-0.521,2.331-0.112,3.2c2.062,4.378-0.379,9.032,1.104,13.569
		c0.663,2.027-0.818,4.816-1.05,7.328c-0.168,1.814-0.253,3.591-0.068,5.392c-0.626,1.482-1.923,1.551-3.175,1.304
		c-3.539-0.7-7.029-1.309-10.611-0.099c-1.389,0.469-1.753-0.834-2.12-1.854c-2.143-10.825-0.613-21.621,0.076-32.449
		c0.339-5.325,0.983-10.624,0.925-16.011c-0.076-7.155,0.47-14.317,1.253-21.479c0.69-6.315,1.925-12.578,2.28-18.878
		C181.6,335.574,181.533,331.939,182.91,328.423z"/>
	<path class="st3" d="M176.855,428.118c0.566,0.363,1.445,1.169,1.65,1.024c3.906-2.769,7.853-0.908,11.74-0.122
		c0.97,0.196,1.697,0.017,2.515-0.255c2.063,2.426,5.37,3.149,7.233,6.169c2.214,3.587,2.332,6.965,1.481,10.744
		c-3.388,15.046-16.852,18.493-27.777,11.241c-0.898-0.596-1.7-1.349-2.494-2.086c-5.755-5.335-5.833-12.827-0.58-18.839
		C172.813,433.489,176.186,431.841,176.855,428.118z"/>
	<path class="st4" d="M424.141,361.421c2.959-4.048,6.387-7.52,11.117-9.534c1.52-0.647,2.67-1.825,2.98-3.587
		c2.032,2.313,5.105,2.305,7.684,2.952c4.142,1.04,5.971,4.4,8.24,7.125c1.952,2.344,1.457,5.795,1.143,8.814
		c-0.572,5.509-3.149,10.439-7.653,13.147c-4.105,2.467-9.216,4.598-14.048,4.095c-4.318-0.45-8.462-3.436-10.917-7.21
		c-1.775-2.728-2.452-6.354-1.033-9.806C422.477,365.415,423.312,363.419,424.141,361.421z"/>
	<path class="st4" d="M293.343,28.335c0.354-3.087-0.514-5.439-3.281-7.312c-3.123-2.114-2.785-5.648-3.178-9.04
		c-1.022-8.839,5.285-12.213,11.487-11.971c3.943,0.154,8.036,0.807,11.539,2.649c4.934,2.595,7.353,7.43,9.207,12.473
		c0.428,1.164,0.451,2.475,0.675,3.715c1.028,5.705-2.069,9.677-8.044,9.84c-2.279,0.062-3.261,0.96-3.658,2.965
		c-2.625,0.354-4.739-1.187-6.842-2.227C298.624,28.129,296.143,27.542,293.343,28.335z"/>
	<path class="st4" d="M109.923,87.521c-2.761,0.353-4.671,2.554-7.343,3.269c-2.895,0.775-5.053,0.455-7.338-1.628
		c-5.928-5.403-6.547-9.315-3.157-16.592c1.953-4.192,4.333-7.486,8.384-9.944c3.476-2.109,7.434-2.019,11.037-3.514
		c2.859-1.187,7.751,4.386,8.165,8.441c0.197,1.931-0.368,4.024,1.199,5.666c-1.613,3.796-2.767,7.867-6.296,10.515
		c-1.36,0.799-2.53,1.831-3.58,3.007C110.641,87.003,110.282,87.263,109.923,87.521z"/>
	<path class="st5" d="M293.343,28.335c1.003-1.985,2.075-3.644,4.65-1.85c3.127,2.178,7.417,2.117,10.1,5.174
		c-0.003-0.005,0.19,0.391,0.19,0.391c0.058,2.084-1.134,3.73-1.931,5.514c-1.98,5.946-4.461,11.622-7.476,17.168
		c-2.263,4.163-2.801,9.159-2.637,14.042c-0.417,0.755-0.262,1.759-1.025,2.364c0,0,0.009-0.041,0.009-0.041
		c-3.948,0.551-7.572-1.248-11.405-1.638c-2.03-0.207-3.791-1.521-2.535-4.287c0.329-0.725,0.015-1.743-0.004-2.626
		c2.45-6.983,4.894-13.969,7.352-20.949C290.19,37.172,291.772,32.755,293.343,28.335z"/>
	<path class="st5" d="M113.504,83.27c2.008-1.567,3.555-3.503,4.187-5.984c0.479-1.883,1.7-3.045,3.182-4.069
		c1.295-0.021,2.343,0.261,3.397,1.261c4.31,4.087,8.987,7.807,13.101,12.074c3.538,3.67,6.495,7.901,9.709,11.884
		c0.413,0.35,0.764,0.743,0.904,1.285c0,0-0.016,0.006-0.015,0.006c-3.045,3.96-5.508,8.507-10.551,10.45
		c-8.278-8.628-17.991-15.514-27.494-22.657c0.201-0.252,0.277-0.536,0.228-0.854C111.309,85.574,112.461,84.476,113.504,83.27z"/>
	<path class="st6" d="M331.272,291.329c2.673-1.15,3.53-4.649,6.701-5.18c0.319-0.053,0.643-0.36,0.869-0.63
		c1.49-1.778,4.666,0.848,5.184-1.265c0.63-2.57,2.895-2.447,4.05-3.846c2.321-2.811,5.217-2.789,8.347-2.081
		c-0.059,1.792-1.643,2.148-2.748,3.005c-5.452,4.228-11.298,7.737-18.049,9.38c-1.354,0.329-2.006,1.468-3.235,1.732
		C331.313,292.781,331.048,292.3,331.272,291.329z"/>
	<path class="st7" d="M488.265,162.79c-1.298-2.797-0.03-5.807,0.369-8.308c1.177-7.368-0.883-12.722-6.917-16.75
		c-0.925-0.618-1.807-1.174-2.23-2.244c0.179,0.009,0.36,0.037,0.537,0.024c5.65-0.409,8.012,3.557,9.27,7.865
		C491.182,149.84,492.265,156.521,488.265,162.79z"/>
	<path class="st8" d="M477.313,182.347c1.563-1.533,1-4.342,3.271-5.45l-0.008,0.007c0.801-0.84,3.716-0.566,1.468-3.039
		c-0.616-0.677-0.564-1.961-0.812-2.942c1.67-0.938,3.281-0.422,4.829-0.54c-0.377,2.169-0.755,4.337-1.132,6.506
		c-0.523,1.224-1.103,2.411-2.142,3.3l-0.028-0.021c-0.803,1.393-2.149,2.217-3.347,3.195c-2.186,1.478-2.153,5.046-5.294,5.624
		c0.25-0.847-2.631-1.032-0.363-2.495c1.465-0.945,2.388-2.731,3.554-4.14L477.313,182.347z"/>
	<path class="st9" d="M385.764,257.557c1.723-0.194,3.246-0.785,4.362-2.189l-0.003,0.003c1.909-0.435,2.729-2.729,5.29-2.493
		c1.915,0.176,2.99-2.257,4.379-3.629c2.488-2.458,4.74-5.549,8.992-4.703c-7.629,6.014-14.804,12.704-24.112,16.222
		C384.142,259.393,384.899,258.457,385.764,257.557z"/>
	<path class="st10" d="M312.739,297.862c0.18-0.313,0.319-0.661,0.549-0.932c0.457-0.539,1.111-1.312,1.738-0.806
		c0.951,0.766-0.802,1.448-0.157,2.735c2.69-1.87,4.018-6.967,8.738-4.304c0.178,0.18,0.357,0.361,0.537,0.541
		c0.443,1.036,0.34,1.973-0.506,2.774c-2.453,1.292-5.906-0.29-7.843,2.789c-0.219,0.349-1.942-0.248-2.968-0.407
		C312.056,299.482,312.145,298.681,312.739,297.862z"/>
	<path class="st11" d="M312.739,297.862c0.029,0.795,0.058,1.591,0.087,2.388c-0.233,0.469-0.445,1.331-0.702,1.345
		c-2.898,0.15-5.572,0.848-7.972,2.567c-0.393,0.281-0.993-0.173-1.291-0.67c1.18-1.063,2.047-2.22,1.477-3.965
		c-0.235-0.72,0.134-1.29,0.797-1.649c1.304-0.829,1.318,1.002,2.191,1.062C308.908,297.462,311.087,298.986,312.739,297.862z"/>
	<path class="st12" d="M415.289,239.164c-0.32-1.026-2.153-1.281-1.684-2.503c0.519-1.352,1.754-0.723,2.752-0.327
		c0.501,0.199,1.253,0.355,1.388-0.2c0.936-3.864,5.197-2.615,7.205-4.78c0.362,0.226,0.484,0.454,0.367,0.686
		c-0.118,0.232-0.236,0.348-0.357,0.348C421.855,234.815,419.579,238.427,415.289,239.164z"/>
	<path class="st10" d="M331.272,291.329c0.373,0.371,0.746,0.743,1.119,1.114c-0.711,2.097-3.377,1.526-4.387,3.215
		c-1.513,0.021-3.082,0.288-4.296-0.987c0,0-0.102-0.115-0.102-0.116c0.616-0.607,1.505-1.105,1.796-1.84
		c0.713-1.806,1.334-2.906,3.099-0.88C329.596,293.092,329.814,288.666,331.272,291.329z"/>
	<path class="st13" d="M460.918,201.923c-0.639-2.051-1.023-3.568,2.028-4.349c1.513-0.387,3.215-1.322,4.814-2.05
		c-0.701,2.235-1.453,4.42-4.415,4.373c-0.898,0.359-0.635,1.506-1.35,1.989l-0.027,0.022c-0.173,0.161-0.346,0.322-0.519,0.485
		C461.272,202.238,461.095,202.08,460.918,201.923z"/>
	<path class="st14" d="M428.304,229.278c3.135-2.685,6.034-5.665,9.654-7.746C436.211,225.947,433.152,228.727,428.304,229.278z"/>
	<path class="st15" d="M323.708,294.671c1.48,0.121,3.153-0.597,4.296,0.988c-1.12,1.399-2.611,2.068-4.367,2.211
		C323.661,296.803,323.685,295.737,323.708,294.671z"/>
	<path class="st16" d="M306.352,37.564c-0.55-2.256,0.67-3.892,1.931-5.514C309.537,34.553,308.919,36.4,306.352,37.564z"/>
	<path class="st17" d="M451.232,209.719c0.877-1.728,3.021-1.179,4.211-2.343C455.939,210.827,455.321,211.171,451.232,209.719z"/>
	<path class="st8" d="M486.052,170.388c-0.553-2.651,0.741-4.683,2.229-6.65C488.722,165.761,487.895,168.227,486.052,170.388z"/>
	<path class="st11" d="M297.53,304.532c1.655-0.987,3.07-3.199,5.338-1.04C301.191,304.365,299.675,306.063,297.53,304.532z"/>
	<path class="st18" d="M415.046,349.18c2.422,0.481,3.807,1.733,3.278,4.408C416.013,353.024,415.275,351.291,415.046,349.18z"/>
	<path class="st19" d="M378.132,263c1.12,0.028,2.24,0.057,3.36,0.085c-0.791,1.41-2.048,2.325-3.369,3.172
		c-0.979,0.259-1.386-0.054-1.082-1.08c0.878-0.47,1.074-1.282,1.095-2.182L378.132,263z"/>
	<path class="st19" d="M385.764,257.557c0.061,1.215-0.617,2.179-1.091,3.211c-0.159,0.572-0.505,0.94-1.116,1.018
		c-0.012-0.532,0.116-1.115-0.059-1.587C382.648,257.898,383.77,257.374,385.764,257.557z"/>
	<path class="st20" d="M482.786,180.189c-0.044-1.592,0.648-2.706,2.142-3.3C486.208,179.283,484.891,179.992,482.786,180.189z"/>
	<path class="st21" d="M479.411,183.363c0.186-2.039,1.95-2.425,3.347-3.195C482.647,182.286,481.601,183.424,479.411,183.363z"/>
	<path class="st22" d="M377.042,265.178c0.361,0.36,0.721,0.72,1.082,1.08c-0.07,0.758-0.14,1.516-0.211,2.274
		c-1.152,0.149-1.999-0.608-2.969-0.998C375.182,266.338,375.95,265.614,377.042,265.178z"/>
	<path class="st14" d="M424.96,232.386c0.012-0.344,0.009-0.689-0.01-1.033c0.688-1.397,1.742-2.206,3.37-2.087
		C427.491,230.62,426.413,231.705,424.96,232.386z"/>
	<path class="st13" d="M457.756,204.26c0.457-1.587,1.616-2.224,3.163-2.337c-0.001,0,0.045,0.044,0.045,0.044
		c0.276,0.244,0.37,0.49,0.284,0.74c-0.087,0.251-0.175,0.377-0.266,0.377C460.189,204.252,458.966,204.238,457.756,204.26z"/>
	<path class="st11" d="M293.135,305.409c1.22-1.525,2.893-0.871,4.42-0.917C296.37,306.19,294.659,305.351,293.135,305.409z"/>
	<path class="st23" d="M3.284,285.866c1.363,0.611,2.093,1.665,2.201,3.151C3.902,288.561,3.167,287.511,3.284,285.866z"/>
	<path class="st22" d="M363.145,273.992c-0.039,1.363-0.077,2.726-0.116,4.088c-1.053-0.132-1.161-0.993-1.371-1.775
		C361.808,275.313,361.911,274.289,363.145,273.992z"/>
	<path class="st18" d="M418.315,353.581c1.813,0.337,2.227,1.339,1.393,2.933C418.296,355.986,418.379,354.748,418.315,353.581z"/>
	<path class="st13" d="M455.624,206.589c0.327-0.815,0.655-1.63,0.982-2.445l-0.005,0.005c0.4,0.031,0.8,0.062,1.201,0.094
		C457.764,205.664,456.9,206.318,455.624,206.589z"/>
	<path class="st24" d="M461.995,201.886c0.07-0.92,0.321-1.718,1.349-1.99C463.151,200.734,462.889,201.525,461.995,201.886z"/>
	<path class="st1" d="M295.214,71.138c-0.182-1.015,0.067-1.843,1.025-2.364C296.433,69.794,296.239,70.646,295.214,71.138z"/>
	<path class="st1" d="M147.984,99.722c-0.701-0.147-1.004-0.575-0.904-1.285C147.67,98.662,148.011,99.062,147.984,99.722z"/>
	<path class="st22" d="M363.073,278.125c0.64,0.111,0.938,0.512,0.967,1.142C363.399,279.156,363.087,278.767,363.073,278.125z"/>
	<path class="st19" d="M381.462,263.088c0.196-0.626,0.616-0.989,1.269-1.082C382.31,262.367,381.886,262.728,381.462,263.088z"/>
	<path class="st24" d="M460.982,203.084c-0.006-0.372-0.012-0.745-0.019-1.117c0.335-0.021,0.671-0.04,1.006-0.058
		C461.879,202.502,461.533,202.879,460.982,203.084z"/>
	<path class="st6" d="M356.386,278.332c0.18-0.606,0.579-0.972,1.199-1.099C357.186,277.599,356.786,277.966,356.386,278.332z"/>
	<path class="st25" d="M28.199,269.611c-1.867-0.556-3.823-1-4.257-3.368c-0.365-0.344-0.712-0.705-1.039-1.085l0.002-0.038
		c0.328-2.629,1.89-2.617,4.11-2.347c6.483,0.789,10.473,5.693,15.472,8.928c2.134,0.913,4.529,1.473,6.345,2.816
		c3.502,2.589,7.059,3.331,11.219,2.078c1.386-0.417,3.291-0.445,1.677,2.039c-0.506,0.78-0.148,1.397,0.641,1.655
		c3.769,1.232,6.739,3.882,10.101,5.682c4.317,2.311,9.588,2.773,14.334,4.371c4.438,1.494,8.755,2.412,13.554,1.938
		c1.847-0.183,3.882,2.164,6.334,2.567c3.981,0.653,8.05,0.943,11.931,1.642c5.543,0.998,11.102,0.591,16.614,1.478
		c5.28,0.85,10.725,0.669,16.097,0.941c2.951-1.156,7.503,0.755,7.426,1.589c-0.424,4.576-4.336,0.287-6.409,1.803
		c-0.783,0.573-2.027-0.734-3.048,0.083c-7.653,1.766-15.354,2.926-23.104,0.789c-1.545-0.426-2.841,0.264-4.24,0.079
		c-5.416-0.715-10.827-1.469-16.24-2.209c-1.775-0.863-3.89-0.803-5.529-2.036c-2.708,0.451-5.243,0.214-7.834-0.976
		c-4.759-2.186-10.085-2.194-15.127-3.294c-8.789-1.918-16.969-4.872-24.674-9.59c-3.145-1.926-6.448-3.923-10.159-4.953
		c-4.673-1.297-7.889-5.021-11.862-7.495c-0.413-0.292-0.796-0.618-1.15-0.979l0,0C28.762,271.143,28.985,270.093,28.199,269.611z"
		/>
	<path class="st26" d="M271.31,278.219c-8.522,5.593-17.743,8.972-27.979,10.077c-5.639,0.609-11.4,1.184-16.798,3.548
		c-4.178,1.829-9.019,1.212-13.321,3.161c-2.144,0.971-4.975-1.081-7.292,0.716l0.046-0.047c-3.241,1.85-6.906,1.43-10.389,1.769
		c-3.048,0.297-4.609-1.724-5.072-4.619c5.72-1.574,11.688-1.769,17.418-2.912c4.273-0.852,8.757-1.908,12.94-2.299
		c6.319-0.592,11.96-3.809,18.42-3.588c3.077,0.105,6.264-1.199,9.296-2.188c2.25-0.734,4.294-1.917,6.76-0.729
		c1.166,0.562,1.952-0.525,2.862-1.093c2.64-1.649,5.52-2.663,8.644-2.913c0.896-0.855,0.923-2.961,3.033-2.066
		C271.36,275.665,272.496,276.408,271.31,278.219z"/>
	<path class="st27" d="M426.12,200.985c0.002,0.336-0.019,0.67-0.061,1.004l0.051-0.051c-0.71,0.102-1.891,0.261-1.77,0.875
		c0.497,2.537-1.493,2.544-2.876,2.994c-4.743,1.543-8.276,4.769-11.723,8.146c-2.681,0.36-3.276,3.352-5.467,4.331
		c-1.039,0.698-2.593,1.165-3.025,2.133c-1.641,3.679-5.167,4.979-8.175,6.82c-2.589,1.586-3.863,4.938-7.298,5.286
		c-2.498-1.38-2.637-3.229-1.074-5.414c3.297-1.655,5.247-4.778,7.861-7.178c3.42-3.139,7.915-4.724,11.426-7.817
		c4.787-4.218,9.967-7.998,14.667-12.305c2.225-2.039,4.088-4.522,6.386-6.545c1.427-1.166,2.511-0.349,3.575,0.611
		C431.292,197.473,428.307,199.089,426.12,200.985z"/>
	<path class="st28" d="M428.268,194.337c-1.049-0.439-2.008-1.148-3.228-1.072c1.312-4.336,5.064-6.655,7.998-9.648
		c0.366-0.373,0.829-0.74,1.316-0.891c5.848-1.819,6.707-2.393,10.174-6.987c0.928-1.262,2.27-2.103,3.305-3.256
		c1.15-2.236,2.388-4.5,4.469-5.927c2.19-1.502,3.505-3.468,4.254-5.89c0.812-2.627,2.904-4.069,5.165-4.928
		c1.104-0.42,1.512-1.416,2.501-1.727c0.882-0.833,0.517-3.139,2.67-2.429c1.26,0.415,1.312,1.435,0.663,2.502
		c-0.021,0.359,0.097,0.923-0.085,1.046c-4.236,2.888-4.86,8.451-9.065,11.631c-3.397,2.569-5.62,6.689-8.364,10.121
		c-1.885,0.85-2.21,2.874-3.269,4.346c-2.811,2.015-5.526,4.112-6.588,7.635c-0.742,0.698-1.645,1.241-2.109,2.204
		c-0.737,0.691-1.473,1.382-2.21,2.073C433.195,192.67,431.007,195.256,428.268,194.337z"/>
	<path class="st29" d="M290.948,271.725c0.354-0.076,0.712-0.109,1.073-0.099c1.165,0.597,0.517-0.914,1.123-0.967l0.011-0.005
		c2.053-0.948,4.553,0.505,6.463-1.205c4.094-2.557,8.363-4.529,13.159-5.622c6.487-1.479,12.37-4.724,18.436-7.397
		c2.253-1.137,3.465,0.331,4.277,1.984c0.969,1.974-1.374,1.568-2.039,2.402c-0.447,0.553-0.781,1.375-1.358,1.617
		c-5.442,2.274-10.892,4.536-16.406,6.626c-4.572,1.733-9.232,3.232-13.853,4.834c-2.558,0.686-5.425,0.311-7.628,2.22l-0.501,0.032
		l-0.502-0.003c-1.304,0.739-1.616-0.607-2.329-1.109l0.012,0.007C290.269,273.923,290.138,272.815,290.948,271.725z"/>
	<path class="st26" d="M333.452,260.815c1.577-2.157,1.207-2.884-2.238-4.386c0.423-0.316,0.901-0.959,1.262-0.899
		c6.194,1.027,10.123-3.668,14.896-6.039c3.482-1.73,6.569-4.09,10.348-5.515c3.534-1.333,6.525-4.148,9.681-6.413
		c0.985-0.707,1.991-0.723,3.066-0.744c0.905-0.531,1.753-1.191,2.775-1.476c1.017-0.284,2.271-0.514,2.595,0.806
		c0.358,1.458-1.586,0.976-2.023,1.889c-3.808,3.039-7.49,6.258-11.468,9.056c-2.73,1.92-5.591,3.918-9.201,3.967
		c-0.921,1.011-2.376,1.212-3.317,2.192C344.94,257.011,339.813,260.249,333.452,260.815z"/>
	<path class="st30" d="M149.304,302.382c2.221-0.896,4.441-1.592,6.848-0.592c0.926,0.385,1.687,0.047,2.288-1.234
		c-2.45-0.657-4.665-1.549-7.104-1.648c0.232-1.552,1.214-1.583,2.34-1.071c4.5,2.043,8.588-0.343,12.725-1.363
		c1.571-0.387,3.066-0.83,4.684-0.809l-0.05,0.051c2.761-1.81,4.378,1.892,6.901,1.56c0.105-0.014-0.745,1.234-1.416,1.693
		c-2.072,1.049-3.912,2.799-6.541,2.163c-1.868-0.281-3.447,0.666-5.108,1.228C159.678,304.118,154.493,303.234,149.304,302.382z"/>
	<path class="st31" d="M281.138,230.304c3.274-2.367,6.479-4.839,9.844-7.068c2.597-1.72,5.217-3.717,8.711-2.717
		c-1.268,2.926-3.53,4.474-6.282,6.178c-3.579,2.215-8.098,2.085-11.147,5.204c-1.555,1.591-3.277,3.023-4.977,4.466
		c-1.843,1.565-3.841,1.895-5.954,0.488c1.728-3.594,5.279-4.458,8.56-5.74c0.453-0.177,0.834-0.538,1.248-0.814L281.138,230.304z"
		/>
	<path class="st32" d="M373.814,238.038c0.393-0.539,1.209-1.189,1.102-1.598c-0.339-1.296-1.289-0.378-1.98-0.249
		c-0.833,0.155-1.646,0.415-2.468,0.629c0.626-1.461,1.923-2.096,3.289-2.596c3.373-1.234,6.401-2.976,8.184-6.212
		c0.751-1.363,1.782-0.805,2.759-0.903c-0.172,1.91,0.065,3.739,1.074,5.415C383.224,237.477,377.945,236.513,373.814,238.038z"/>
	<path class="st33" d="M42.487,271.701c-2.98-0.579-5.265-2.404-7.208-4.513c-2.68-2.91-6.536-2.406-9.751-3.714
		c-0.691-0.281-2.018,0.632-2.624,1.646c-1.223,0.017-2.508,0.238-3.343-1.019c-1.185-1.251-1.769-2.648-1.056-4.359
		c6.917-0.008,13.151,2.061,18.357,6.613C38.796,268.044,41.785,268.708,42.487,271.701z"/>
	<path class="st34" d="M467.553,154.083c-1.016-4.333-2.218-0.231-3.333-0.073c0.091-2.704,0.66-5.215,2.1-7.608
		c1.691-2.809,1.457-6.203,2.02-9.79c2.744,2.158,4.215,3.69,2.449,7.246C469.24,146.977,470.787,151.305,467.553,154.083z"/>
	<path class="st22" d="M375.01,267.485c-0.076,0.873-0.029,2.417-0.722,2.369c-4.49-0.31-5.232,6.045-9.78,5.304
		c-0.235-0.038-0.336-0.902-0.5-1.382c1.066-1.935,0.98-5.19,4.839-3.821c0.787,0.279,2.619-0.018,1.417-2.113
		c-0.475-0.827,0.774-1.408,1.712-1.235C373.007,266.798,374.001,267.184,375.01,267.485z"/>
	<path class="st28" d="M428.268,194.337c1.423-1.835,4.114-0.779,5.702-2.557c0.516-0.578,1.483,0.54,1.894,1.362
		c-1.943,1.793-3.904,3.568-5.822,5.389c-1.148,1.09-2.135,2.401-3.922,2.455C427.218,198.893,429.744,197.261,428.268,194.337z"/>
	<path class="st35" d="M271.31,278.219c-1.442-2.994-1.698-3.058-4.464-1.116c0.168-1.389,0.03-3.09,2.052-3.138
		c2.394-0.058,4.892-1.367,7.215,0.513C275.378,276.803,273.195,277.324,271.31,278.219z"/>
	<path class="st36" d="M404.273,218.284c0.657-1.26,1.379-2.491,1.958-3.786c0.92-2.059,2.228-1.099,3.51-0.545
		C408.278,215.852,407.599,218.738,404.273,218.284z"/>
	<path class="st37" d="M294.206,276.112c1.808-3.264,4.725-2.72,7.628-2.219C299.464,275.224,297.138,276.71,294.206,276.112z"/>
	<path class="st38" d="M169.979,301.131c2.109-0.936,4.027-2.452,6.541-2.163C173.514,302.684,173.514,302.684,169.979,301.131z"/>
	<path class="st37" d="M299.619,269.448c-1.722,2.722-4.038,2.255-6.464,1.205c0.433-1.027,1.007-1.943,2.316-1.517
		C296.845,269.584,298.217,269.605,299.619,269.448z"/>
	<path class="st39" d="M18.506,259.742c0.702,1.368,1.22,2.781,1.056,4.359C15.822,262.689,15.718,262.261,18.506,259.742z"/>
	<path class="st40" d="M100.19,299.006c2.146-0.144,4.034,0.413,5.529,2.037C103.529,301.306,101.065,302.314,100.19,299.006z"/>
	<path class="st41" d="M446.771,181.228c-0.045-2.302,0.477-4.178,3.269-4.346C449.119,178.458,448.844,180.519,446.771,181.228z"/>
	<path class="st42" d="M363.998,134.371c-2.897-2.331-2.891-3.079,0.036-4.258C364.023,131.533,364.011,132.952,363.998,134.371z"/>
	<path class="st43" d="M447.832,172.483c0.025,2.227-1.807,2.572-3.304,3.257C444.755,173.767,445.837,172.662,447.832,172.483z"/>
	<path class="st44" d="M322.55,204.143c0.126-2.25,1.725-2.199,3.334-2.131C325.699,204.173,324.14,204.183,322.55,204.143z"/>
	<path class="st37" d="M290.948,271.725c-0.02,1.105-0.04,2.21-0.06,3.315c-0.458-0.52-0.991-0.994-1.353-1.574
		c-0.4-0.642-1.933-0.887-1.058-1.899C288.803,271.189,290.096,271.647,290.948,271.725z"/>
	<path class="st45" d="M108.909,236.875c2.735-1.271,2.135,0.781,2.182,2.19C109.684,239.011,108.98,238.259,108.909,236.875z"/>
	<path class="st19" d="M378.137,262.996c-0.839-0.143-1.865-0.16-1.657-1.41c0.095-0.57,0.786-0.77,1.286-0.628
		c1.408,0.399,0.485,1.312,0.366,2.042C378.132,263,378.137,262.996,378.137,262.996z"/>
	<path class="st46" d="M349.828,253.253c0.573-1.536,1.683-2.26,3.317-2.192C352.939,253.154,351.404,253.235,349.828,253.253z"/>
	<path class="st47" d="M438.074,191.067c0.016-1.393,0.682-2.163,2.11-2.204C440.893,190.95,438.645,190.206,438.074,191.067z"/>
	<path class="st48" d="M307.326,298.94c-1.489,1.21-1.201-1.245-2.191-1.062C306.865,296.17,307.09,297.566,307.326,298.94z"/>
	<path class="st37" d="M290.875,275.032c0.776,0.369,1.552,0.739,2.328,1.108C291.531,277.654,291.107,276.545,290.875,275.032z"/>
	<path class="st37" d="M293.145,270.659c-0.006,0.35,0.052,0.717-0.033,1.046c-0.111,0.43-0.336,0.83-0.512,1.243
		c-0.586-0.268-0.513-0.824-0.579-1.321C292.396,271.304,292.77,270.981,293.145,270.659z"/>
	<path class="st8" d="M480.584,176.897c-0.636-0.27-1.255-0.581-1.4-1.331c-0.018-0.094,0.474-0.441,0.606-0.384
		c0.743,0.322,0.719,1.054,0.786,1.722C480.576,176.905,480.584,176.897,480.584,176.897z"/>
	<path class="st9" d="M390.126,255.368c-0.337-0.001-0.685,0.05-1.008-0.017c-0.465-0.096-0.912-0.277-1.366-0.422
		c0.436-0.855,1.095-0.57,1.689-0.274c0.278,0.138,0.459,0.471,0.683,0.716L390.126,255.368z"/>
	<path class="st49" d="M28.199,269.611c0.979,0.374,1.161,1.196,1.184,2.107C28.468,271.308,28.288,270.485,28.199,269.611z"/>
	<path class="st14" d="M425.77,227.705c0.048-0.136,0.093-0.385,0.145-0.387c0.155-0.005,0.312,0.088,0.469,0.143
		c-0.048,0.136-0.093,0.386-0.145,0.387C426.085,227.853,425.927,227.76,425.77,227.705z"/>
	<path class="st26" d="M227.048,285.395c-0.141,0.074-0.288,0.214-0.422,0.203c-0.13-0.011-0.247-0.177-0.37-0.275
		C226.558,285.004,226.822,285.028,227.048,285.395z"/>
	<path class="st13" d="M456.606,204.144c-0.472-0.133-0.944-0.266-1.416-0.4c0.797-1.004,1.023-0.017,1.412,0.405
		C456.602,204.149,456.606,204.144,456.606,204.144z"/>
	<path class="st27" d="M426.059,201.989c0.152,0.071,0.443,0.174,0.436,0.207c-0.081,0.351-0.23,0.26-0.385-0.258
		C426.109,201.938,426.059,201.989,426.059,201.989z"/>
	<path class="st8" d="M477.308,182.352c-0.15-0.084-0.438-0.198-0.427-0.247c0.079-0.362,0.249-0.276,0.432,0.242
		C477.313,182.347,477.308,182.352,477.308,182.352z"/>
	<path class="st49" d="M29.383,271.718c0.383,0.327,0.766,0.654,1.15,0.98C29.949,272.608,29.574,272.271,29.383,271.718z"/>
	<path class="st33" d="M22.903,265.157c0.346,0.362,0.692,0.724,1.039,1.086C23.39,266.078,23.035,265.725,22.903,265.157z"/>
	<path class="st50" d="M211.061,189.41c-0.13-5.328,1.269-11.453,4.513-17.1c8.382-14.59,25.127-18.198,38.757-8.38
		c15.008,10.811,20.88,32.964,13.195,49.779c-7.359,16.101-24.907,21.016-39.542,11.076
		C217.416,217.608,211.003,204.645,211.061,189.41z"/>
	<path class="st50" d="M283.017,145.971c0.002-3.461,0.299-6.865,1.376-10.197c4.426-13.689,17.562-21.125,31.418-17.118
		c16.027,4.635,24.917,16.067,28.507,31.95c1.133,5.014,0.943,10.099-0.335,15.1c-4.065,15.915-19.097,23.739-34.781,18.124
		C293.844,178.332,283.003,162.66,283.017,145.971z"/>
	<path class="st50" d="M129.133,203.346c0.285-13.096,3.726-24.102,12.755-32.805c11.806-11.379,27.646-9.596,36.805,4.055
		c10.775,16.06,7.751,41.869-6.453,55.089c-12.101,11.262-28.343,9.113-37.127-4.936
		C130.856,217.941,129.225,210.405,129.133,203.346z"/>
	<path class="st31" d="M281.141,230.302c-0.152-0.082-0.443-0.195-0.433-0.242c0.079-0.364,0.248-0.277,0.43,0.245L281.141,230.302z
		"/>
	<path class="st51" d="M113.504,83.27c-0.175,2.063-1.593,2.898-3.353,3.395C110.601,84.875,111.805,83.829,113.504,83.27z"/>
	<path class="st0" d="M59.479,279.632c-0.128-0.048-0.361-0.094-0.363-0.145c-0.004-0.153,0.083-0.308,0.135-0.463
		c0.129,0.048,0.367,0.095,0.367,0.143C59.62,279.322,59.532,279.477,59.479,279.632z"/>
	<path class="st0" d="M205.966,295.673c-0.149-0.07-0.434-0.168-0.427-0.204c0.074-0.341,0.222-0.253,0.38,0.251
		C205.92,295.72,205.966,295.673,205.966,295.673z"/>
	<path class="st28" d="M429.352,191.862c-0.244-0.205-0.63-0.371-0.699-0.624c-0.112-0.408,0.192-0.62,0.594-0.486
		c0.154,0.051,0.303,0.188,0.401,0.324C429.94,191.481,429.829,191.752,429.352,191.862z"/>
	<path class="st0" d="M171.035,295.716c0.158,0.072,0.461,0.175,0.453,0.211c-0.079,0.367-0.235,0.275-0.403-0.261
		C171.085,295.665,171.035,295.716,171.035,295.716z"/>
</g>
</svg>
